<?xml version="1.0" standalone="yes"?>
<svg xmlns="http://www.w3.org/2000/svg" width="1571" height="2200">
<path style="fill:#4169e3; stroke:none;" d="M0 0L0 2200L1571 2200L1571 0L0 0z"/>
<path style="fill:#feffff; stroke:none;" d="M1092 120C1087.66 112.323 1076.5 107.274 1068 106L1067 110C1070.95 112.201 1074.76 114.238 1077.49 118.005C1083.62 126.468 1083 140.067 1083 150L1083 243L1083 266C1083 269.75 1083.72 274.424 1082.4 278C1080.64 282.755 1075.49 286.506 1072 290C1076.81 296.29 1083.79 300.22 1089.71 305.349C1092 307.327 1094.68 310.422 1098 310.263C1101.63 310.089 1104.48 306.366 1107 304.181C1112.22 299.66 1117.79 295.551 1123 291C1120.18 286.998 1115.31 283.642 1113.6 279C1111.23 272.562 1113 262.814 1113 256L1113 220C1113 214.362 1111.94 207.488 1113.32 202C1115.19 194.536 1126.27 188.526 1132.04 183.994C1134.16 182.329 1136.8 179.895 1139.71 180.876C1144.63 182.53 1149.31 189.171 1150.37 194C1153.09 206.454 1151 221.277 1151 234L1151 278C1151 288.077 1151.43 299.566 1147.32 309C1138.78 328.555 1115.2 340.355 1096 347L1097 352C1107.99 350.579 1118.24 345.196 1128 340.177C1140.42 333.792 1152.93 326.855 1163 316.985C1168.48 311.616 1174.42 305.3 1177.19 298C1180.95 288.058 1181 276.488 1181 266L1181 229C1181 209.85 1185.85 180.855 1170.97 166.093C1168.07 163.213 1163.25 157.785 1159 157.172C1154.88 156.577 1149.14 162.595 1146 164.924C1134.76 173.268 1124.67 183.222 1113 191L1113 153C1113 144.434 1112.57 135.393 1114.6 127C1115.76 122.186 1117.88 117.786 1121.3 114.174C1125.09 110.177 1130.48 108.174 1129 102C1114.33 105.615 1104.63 112.108 1092 120M766 178L779 178L779 240C779 251.024 780.442 263.208 777.865 274C776.401 280.131 770.694 283.21 769 289C778.346 290.609 787.4 296.268 795 301.746C798.118 303.993 802.951 310.395 807.039 310.169C810.339 309.987 813.264 306.68 815.576 304.654C820.528 300.314 825.973 296.574 830.999 292.296C832.91 290.67 837.572 288.138 837.079 285.076C836.227 279.786 827.561 287.263 825 286.958C820.388 286.409 812.235 279.191 810.603 274.961C809.451 271.974 810 268.139 810 265L810 245L810 178L839 178L839 162L810 162L811 122C803.616 122.558 800.827 128.714 796.54 134C789.524 142.651 782.558 151.303 775.628 160C770.825 166.028 766.096 169.889 766 178M292 156C286.697 162.902 278.869 170.649 271 174.51C266.566 176.686 256.787 178.273 254.028 182.419C251.559 186.128 253 193.725 253 198L253 238C264.136 241.208 272.773 249.905 284 253C274.884 267.638 262.855 280.105 252.822 294C250.274 297.528 242.488 302.941 243.748 307.891C244.586 311.186 248.285 311.832 251 310.642C258.827 307.213 263.937 301.148 273 300.174C281.43 299.267 290.186 300.441 298 303.745C302.401 305.606 309.037 311.233 314 310.184C318.905 309.148 323.834 303.121 328 300.356C337.062 294.34 347.086 289.952 358 289L358 245C358 240.5 359.718 231.484 356.972 227.688C354.927 224.859 350.003 223.316 347 221.745C339.748 217.95 332.8 213.617 325 211C331.847 199.679 341.064 189.26 349.424 179C354.979 172.182 361.251 164.462 363.971 156C366.355 148.582 367.504 140.005 359.957 135.148C357.921 133.838 355.423 132.889 353.005 133.647C351.63 134.079 350.213 135.009 349.318 136.148C346.075 140.277 346.505 145.808 349.418 150C352.008 153.727 356.242 157.137 353.242 161.957C349.331 168.242 341.668 169.146 335 168.985C320.273 168.63 305.499 161.207 292 156M1248 156C1242.74 163.463 1235.15 170.577 1227 174.816C1222.12 177.351 1214.63 178.283 1210.6 182.075C1207.72 184.788 1209 191.424 1209 195L1209 223C1209 226.755 1208.01 232.235 1209.6 235.726C1210.73 238.192 1213.79 239.338 1216 240.589C1220.97 243.397 1225.85 246.52 1231 248.981C1233.58 250.214 1238.64 251.421 1238.54 255.094C1238.43 259.186 1233.22 263.037 1230.96 266.089C1223.7 275.91 1216.45 285.642 1208.56 295.001C1205.98 298.063 1196.57 306.111 1202.32 310.292C1205.12 312.32 1208.61 309.8 1211 308.304C1216.97 304.564 1222.76 300.678 1230 300.093C1238.97 299.369 1247.7 301.088 1256 304.453C1260.1 306.116 1265.46 310.83 1270 310.458C1274.87 310.058 1279.1 303.886 1283 301.301C1292.44 295.049 1303.51 289.525 1315 289L1315 246C1315 241.136 1316.59 232.855 1314.4 228.429C1313.05 225.718 1308.48 224.602 1306 223.186C1298.18 218.722 1289.85 212.906 1281 211C1288.56 199.568 1297.89 188.705 1306.46 178C1311.88 171.232 1317.59 164.459 1320.23 156C1322.49 148.724 1322.03 129.14 1309 133.619C1307.63 134.09 1306.22 134.998 1305.32 136.148C1302.13 140.209 1302.58 145.555 1305.64 149.576C1308.31 153.094 1313.26 156.874 1310.12 161.7C1306.06 167.942 1298.75 169.074 1292 168.996C1276.38 168.816 1262.73 159.68 1248 156M377 178L379 183C381.716 182.165 385.007 180.055 387.91 180.451C396.915 181.677 397 195.494 397 202L397 274C392.95 274.011 381.713 273.213 379.028 276.603C376.953 279.223 378 284.855 378 288C384.349 288.131 390.706 289.204 397 290C397 306.108 400.82 328.989 386 340L387 344C391.759 343.082 395.916 340.466 400 337.897C402.026 336.623 404.437 334.034 406.985 334.047C410.147 334.063 412.881 338.138 415.09 339.985C421.071 344.987 436.936 356.007 444 349C438.735 344.884 433.471 340.135 430.543 334C425.809 324.079 428 310.712 428 300C433.627 301.003 438.175 304.011 443 306.938C445.526 308.471 448.863 310.859 452 310.184C455.528 309.423 458.33 305.66 461 303.464C467.678 297.969 474.439 292.027 482 287.781C485.56 285.781 491.622 283.646 493.397 279.671C494.855 276.403 494 271.499 494 268L494 243L494 206C494 199.937 494.97 192.891 493.367 187C489.873 174.168 475.876 161.439 464 156C457.931 163.503 449.261 169.884 442 176.286C437.014 180.681 432.709 185.501 427 189C426.999 178.124 424.339 169.706 415.996 162.174C413.715 160.114 410.374 156.783 407 157.171C403.713 157.55 400.639 160.99 398 162.772C390.901 167.566 383.709 172.687 377 178M530 169C528.413 175.925 531.721 180.936 534.753 187C538.822 195.137 542.934 203.433 546 212C538.642 215.811 532.222 226.873 528.219 234C517.938 252.306 509.426 272.426 522.519 292C526.11 297.368 533.664 309.729 541 309.922C545.644 310.044 550.6 303.946 554 301.336C564.418 293.337 574.543 284.938 585 277C586.324 287.422 588.321 296.443 596.018 304.039C598.016 306.01 600.258 308.879 603 309.824C606.166 310.916 608.79 308.135 610.985 306.267C616.571 301.513 622.15 296.756 627.576 291.819C629.538 290.033 633.669 287.816 634.079 284.955C634.435 282.469 631.985 281.525 629.981 282.157C624.244 283.964 618.918 288.015 616.434 278.999C613.393 267.961 615 254.365 615 243C615 224.175 612.202 202.305 617.159 184C619.151 176.645 624.415 171.06 627 164C619.373 162.427 616.62 170.473 609 169.8C600.333 169.035 590.059 165.602 582 162.391C578.363 160.943 574.098 156.902 570 157.241C565.784 157.589 560.921 162.885 557 164.776C547.89 169.17 539.953 170.258 530 169M732 156C722.159 165.759 711.115 175.748 700 184C699.604 174.921 694.873 167.636 687.911 161.889C685.485 159.887 682.382 157.124 679 158.082C673.732 159.573 668.846 165.351 665 168.964C660.15 173.52 654.744 177.296 650 182L652 186C655.808 184.74 660.806 179.959 664.786 182.647C671.299 187.046 670 198.315 670 205L670 247C670 254.535 670.783 262.569 669.381 270C667.958 277.544 661.959 282.005 660 289C669.285 291.807 678.08 296.386 686 301.978C689.296 304.305 692.213 308.399 696 309.864C699.994 311.408 703.297 307.483 706 305.158C712.751 299.353 719.963 293.819 727 288.349C729.149 286.679 735.638 282.849 733.11 279.362C731.74 277.473 729.583 278.335 727.996 279.362C724.521 281.61 721.39 286.583 717 287.108C712.319 287.668 705.145 280.803 702.318 277.572C697.237 271.765 700 257.331 700 250L700 210C700 204.923 698.7 197.655 701.028 193C703.914 187.227 710.656 182.342 716 179C717.711 185.278 723.261 189.848 727.091 194.985C728.414 196.76 729.86 199.479 732.209 200.029C737.82 201.345 745.382 190.783 749.266 187.62C751.078 186.145 753.34 184.589 753.368 181.982C753.404 178.652 750.031 175.952 747.999 173.714C742.671 167.848 738.429 160.717 732 156M916 156C906.255 162.938 893.148 168.853 882 173.189C877.392 174.981 868.012 176.479 865.028 180.649C863.296 183.069 864 187.204 864 190L864 213C864 234.319 866.098 256.908 862.697 278C861.642 284.54 855.502 287.672 855 294C865.468 294.479 878.432 298.647 888 302.862C893.005 305.067 899.464 310.373 905 310.501C910.563 310.629 915.743 304.488 920 301.595C931.016 294.109 941.945 286.459 953 279C950.506 274.496 947.107 275.293 943.17 278.019C938.271 281.409 933.053 287.012 927 288.177C923.517 288.848 920.132 287.125 917 285.858C910.388 283.183 901.996 281.043 896.148 276.925C894.363 275.668 893.491 274.121 893.148 271.985C892.206 266.114 891.307 253.896 895.318 249.184C900.215 243.432 907.964 239.891 914 235.512C928.572 224.94 943.992 215.29 958 204C950.212 192.61 940.281 182.342 931.17 172C926.218 166.38 922.206 160.372 916 156M975 294C985.534 295.986 996.27 298.661 1006 303.22C1010.6 305.375 1017.84 311.082 1023 310.448C1029.33 309.67 1037.93 300.937 1043 297.171C1049.29 292.496 1059.58 288.069 1057 279C1052.65 281.867 1048.16 286.672 1043 287.948C1036.77 289.487 1029.28 284.242 1024 281.602C1020.64 279.922 1015.24 278.538 1013.6 274.787C1012.48 272.214 1013 268.735 1013 266L1013 248L1013 185C1023.17 189.009 1032.31 197.938 1043 200C1047.39 192.111 1053.24 185.268 1057 177C1048.11 171.809 1039.09 166.706 1030 161.88C1027.13 160.358 1023.43 157.022 1020 157.252C1017.19 157.441 1015.04 160.021 1013 161.681C1009.29 164.704 1005.5 167.719 1001.71 170.652C997.056 174.26 986.195 177.038 983.603 182.415C982.432 184.846 983 188.384 983 191L983 208C983 228.646 983.499 249.361 982.985 270C982.875 274.423 982.03 279.012 980.002 282.985C977.947 287.01 975.347 289.315 975 294z"/>
<path style="fill:#4169e3; stroke:none;" d="M894 173C891.886 180.152 893 188.573 893 196L893 239C903.108 235.249 912.337 226.927 921.015 220.579C923.615 218.677 928.36 216.418 929.056 212.946C929.944 208.517 923.633 203.718 921.011 201C912.471 192.148 904.641 179.202 894 173M536 175C538.649 184.195 543.611 193.578 548.139 202C549.825 205.136 550.912 209.011 553.418 211.61C555.955 214.24 559.785 215.643 563 217.247C570.137 220.807 577.332 224.76 585 227L585 201C585 197.951 585.854 193.148 583.972 190.514C581.783 187.448 575.357 187.38 572 186.213C560.535 182.229 547.942 177.03 536 175M282 180L282 209C282 212.286 281.041 217.512 283.028 220.363C286.339 225.114 297.529 229.013 303 230C310.824 214.833 326.124 203.721 333 188C320.202 190.627 308.636 191.925 296 187.01C291.081 185.097 287.07 181.605 282 180M465 284L465 227C465 217.441 465.77 207.521 464.941 198C464.375 191.493 458.741 188.899 454.285 185.056C452.271 183.319 449.965 180.664 446.996 181.022C443.254 181.474 439.697 186.082 437 188.424C433.924 191.097 430.061 194.048 428.603 198C426.896 202.63 428 209.125 428 214L428 249L428 266C428.005 268.199 427.534 271.411 429.028 273.258C431.101 275.82 436.1 274.906 439 275.598C447.956 277.736 456.201 281.49 465 284M1239 180L1239 208C1239 211.625 1237.96 217.283 1240.03 220.471C1242.37 224.073 1254.64 230.485 1258.83 228.784C1263.3 226.966 1265.98 220.655 1268.7 217C1275.59 207.747 1285.3 198.552 1290 188C1283.99 188.883 1278.15 191.065 1272 190.946C1259.43 190.703 1250.09 184.595 1239 180M550 217C541.499 234.965 537.244 256.625 549.598 274C552.341 277.858 558.261 286.738 563.83 286.133C567.103 285.777 570.562 281.56 573.001 279.6C576.518 276.774 581.735 273.856 583.972 269.829C586.976 264.423 585 254.054 585 248C585 244.057 586.339 237.027 583.972 233.637C582.128 230.996 577.801 229.597 575 228.262C567.027 224.46 558.364 219.647 550 217M273 280C285.99 277.029 296.852 274.621 310 278.835C316.59 280.947 322.345 285.083 329 287L329 258C329 254.328 330.039 248.631 327.972 245.39C325.19 241.029 316.558 238.264 312.001 236.162C310.225 235.343 308.291 234.281 306.325 235.16C302.601 236.826 299.776 242.882 297.338 246C289.165 256.453 278.506 267.907 273 280M1229 280C1241.71 276.636 1253.16 274.641 1266 278.746C1272.64 280.869 1278.43 284.92 1285 287L1285 258C1285 254.298 1286.02 248.66 1283.97 245.379C1281.26 241.032 1274.34 239.177 1270 236.985C1267.94 235.942 1265.72 234.243 1263.3 235.133C1258.6 236.86 1255.04 244.168 1252.3 248C1244.93 258.325 1234.27 268.496 1229 280z"/>
<path style="fill:#feffff; stroke:none;" d="M1341 380C1341.87 384.841 1344.48 388.689 1346.74 393C1351.11 401.328 1355.75 409.563 1359.89 418C1368.66 435.889 1375.64 454.365 1382.53 473C1385.11 479.983 1388.38 486.82 1390.41 494C1398.51 522.732 1405.86 552.377 1409.71 582C1416.64 635.337 1412.68 688.118 1404.44 741C1403.2 748.969 1403.39 757.024 1401.71 765C1399.51 775.46 1395.5 785.675 1392.74 796C1391.59 800.283 1391.35 804.728 1390.24 809C1384.87 829.603 1376.56 849.38 1368.43 869C1365.97 874.916 1364.45 881.125 1361.83 887C1357.07 897.677 1350.65 907.857 1344.87 918C1332.88 939.073 1320.83 959.185 1306.75 979C1301.84 985.905 1297.73 993.297 1292.48 1000C1284.74 1009.89 1275.55 1018.58 1267.29 1028C1261.23 1034.9 1255.57 1042.54 1248.96 1048.9C1242.85 1054.76 1235.82 1059.9 1229.42 1065.47C1218.81 1074.71 1208.53 1085.05 1197 1093.12C1190.46 1097.69 1183.61 1101.7 1177 1106.13C1174.41 1107.87 1171.02 1109.51 1169.43 1112.33C1167.86 1115.13 1167.91 1118.89 1167.41 1122C1166.18 1129.65 1165.8 1137.31 1164.84 1145C1162.23 1166.03 1159.04 1187.19 1155 1208C1159.77 1207.15 1163.67 1204.7 1168 1202.64C1181.26 1196.31 1192.89 1187.61 1205 1179.38C1233.04 1160.31 1260.54 1139.51 1284.71 1115.58C1292.11 1108.25 1298.26 1099.74 1305.17 1092C1319.22 1076.26 1331.31 1060.04 1343.69 1043C1350.39 1033.79 1357.7 1024.75 1363.62 1015C1370.16 1004.21 1375.44 992.208 1381.32 981C1396.16 952.74 1408.6 924.824 1417.09 894C1418.75 887.992 1421.41 882.13 1422.62 876C1423.76 870.268 1423 863.825 1423 858L1423 824L1423 716L1423 379L1341 380M458 380C462.728 384.445 468.842 386.907 473.961 390.833C489.759 402.947 505.86 415.321 521.015 428.26C528.613 434.748 535.223 442.651 542.286 449.714C560.942 468.372 577.712 487.843 593.488 508.985C602.797 521.46 611.152 533.555 619.018 547C622.279 552.574 626.537 557.607 628 564C654.398 560.646 680.394 555.912 707 554.089C723.757 552.942 740.288 553.655 757 554C751.682 535.531 740.476 519.318 730.735 503C712.644 472.695 692.079 443.859 668.195 417.83C660.144 409.056 651.108 401.166 642.87 392.55C639.087 388.594 634.364 382.185 628.961 380.513C623.887 378.943 617.267 380 612 380L576 380L458 380M768 380C770.089 384.675 773.92 387.769 776.628 392.039C784.784 404.899 792.907 417.939 800.743 431C815.188 455.075 826.966 481.294 838.289 507C840.148 511.22 840.721 515.649 842.089 520C845.047 529.403 848.762 538.563 851.589 548C852.967 552.599 853.861 561.921 857.653 565.062C860.432 567.364 865.605 567.632 869 568.657C878.655 571.57 888.283 574.103 898 576.608C916.549 581.391 934.197 591.093 952 598C951.725 585.078 947.19 571.64 944.601 559C935.587 514.987 919.287 473.331 899.705 433C893.939 421.124 886.093 410.533 879.779 399C876.855 393.659 873.037 384.275 867.671 381.028C865.201 379.533 861.757 380.001 859 380L840 380L768 380M990 380C993.216 395.374 1003.16 410.718 1009.69 425C1013.24 432.763 1014.94 440.998 1017.7 449C1022.37 462.566 1028.19 475.951 1031.33 490C1040.07 529.058 1046.18 569.088 1048.91 609C1049.8 622.045 1048.15 635.009 1048 648C1047.95 651.992 1046.15 657.097 1047.61 660.911C1049.39 665.595 1055.42 669.836 1059.01 673.17C1065.31 679.009 1071.11 685.597 1076.83 692C1087.65 704.128 1097.38 717.427 1106.27 731C1110.81 737.933 1114.75 747.643 1121 753C1125.4 739.081 1125.97 724.223 1128.46 710C1142.63 629.068 1133.19 542.75 1107.07 465C1099.9 443.632 1090.95 423.302 1081.26 403C1078.21 396.614 1075.24 384.828 1068.79 381.028C1063.39 377.846 1052.13 380 1046 380L990 380M1186 380C1186.77 384.339 1188.96 387.897 1190.46 392C1193.66 400.751 1197.04 409.41 1200.67 418C1206.68 432.221 1211.45 448.087 1215.4 463C1221.69 486.791 1228.2 511.693 1231.7 536C1237.64 577.243 1237.78 619.45 1235.96 661C1235.36 674.676 1231.23 688.468 1229.3 702C1224.17 738.019 1216 775.193 1201.98 809C1195.61 824.36 1189.58 840.318 1181.77 855L1172.22 873C1170.69 875.856 1168.28 878.765 1167.68 882C1166.91 886.113 1168.93 891.008 1169.79 895C1171.72 903.927 1173.33 912.97 1174.73 922C1178.4 945.833 1179 969.93 1179 994C1188.97 986.974 1195.17 975.783 1202.14 966C1216.72 945.528 1229.97 924.966 1242.17 903C1264.53 862.74 1281.05 820.664 1292.48 776C1294.88 766.622 1297.84 757.573 1299.54 748C1301.42 737.386 1301.91 726.627 1303.29 716C1304.64 705.615 1306.84 695.438 1307.83 685C1309.47 667.742 1308.79 650.249 1308.04 633C1306.49 597.556 1303.65 562.443 1294.58 528C1291.34 515.686 1289.15 503.207 1285.43 491C1277.99 466.587 1267.22 443.266 1256.86 420C1252.67 410.587 1247.76 402.049 1242.89 393C1240.85 389.22 1239.12 383.525 1235.39 381.028C1231.9 378.692 1225.02 380 1221 380L1186 380M141 388L141 966L141 1158C141 1210.17 140.003 1262.29 147.428 1314C153.273 1354.71 163.885 1394.28 177.204 1433C198.317 1494.37 224.538 1553.34 256.439 1610C280.54 1652.81 309.952 1692.9 339.559 1732C398.237 1809.5 466.337 1879.56 542 1940.63C566.207 1960.16 591.614 1978.02 617 1995.91C654.864 2022.61 695.257 2048.26 737 2068.49C746.373 2073.03 755.681 2077.9 765 2082.51C769.649 2084.82 774.733 2088.88 780 2089.5C784.487 2090.03 789.159 2086.67 793 2084.75C802.026 2080.25 811.106 2076.09 820 2071.31C854.611 2052.7 889.421 2034.07 922.004 2012C939.256 2000.32 957.202 1989.21 973.961 1976.83C1054.91 1917.04 1129.52 1846.76 1193.26 1769C1213.4 1744.42 1234.77 1719.87 1251.87 1693C1253.67 1690.16 1254.27 1686.86 1256.02 1684C1262.31 1673.72 1271.32 1664.13 1276 1653C1263.42 1654.85 1251.53 1659.46 1239 1661.56C1218.84 1664.95 1198.33 1668.86 1178 1670.83C1164.01 1672.18 1149.05 1671.71 1135 1672C1135.08 1681.53 1138.17 1690.7 1140 1700C1143.97 1720.17 1148.73 1740.39 1155 1760C1114.05 1725.65 1084.17 1678.52 1067.41 1628C1053.11 1584.91 1047.19 1537.18 1044.09 1492C1040.83 1444.48 1038.92 1396.88 1029.51 1350C1027.44 1339.67 1026.11 1329.16 1022.91 1319C1020.1 1310.07 1017.46 1300.67 1013.99 1292C996.173 1247.55 963.317 1191 909 1191C904.067 1191 898.86 1190.53 894 1191.51C884.384 1193.45 870.971 1198.88 864.992 1207.05C856.684 1218.42 861.556 1240.08 872.093 1248.68C875.549 1251.5 879.854 1250.83 884 1251.43C894.047 1252.87 903.979 1254.7 914 1256C906.923 1273.96 894.478 1291.14 878 1301.54C864.784 1309.89 850.987 1313.49 836 1316.51C815.722 1320.61 794.715 1322.33 774 1320.91C762.67 1320.13 751.274 1319.24 740 1317.72C733.648 1316.86 726.409 1314.71 720 1316.32C707.256 1319.51 704.555 1335.27 697.239 1343.87C694.787 1346.75 691.376 1348.17 688 1349.69C638.702 1372.01 586.366 1389.09 541 1419.47C529.531 1427.15 517.944 1435.44 508.039 1445.09C502.969 1450.03 499.199 1456.25 494 1461C492.77 1454.53 488.752 1448.61 488.105 1442C486.759 1428.24 489.971 1413.72 490.91 1400C494.405 1348.97 503 1298.24 503 1247C503 1211.87 497.953 1173.87 480 1143C489.969 1143 499.263 1142.8 509 1140.41C518.28 1138.13 526.859 1133.51 536 1130.77C542.828 1128.72 550.421 1129.44 557 1127.3C566.426 1124.24 576.133 1115.97 582.754 1108.83C589.863 1101.17 594.93 1093 598.024 1083C599.191 1079.23 601.018 1074.88 598.396 1071.3C592.847 1063.72 579.52 1059.98 571 1057.26C537.221 1046.46 493.781 1055.99 467 1079.29C432.685 1109.15 426.093 1157.38 421.831 1200C420.142 1216.89 418 1234.02 418 1251C402.951 1251.78 394.535 1264.79 384 1273.7C378.924 1277.99 371.714 1283.08 365.059 1279.28C360.922 1276.92 361.009 1273.28 361 1269C360.986 1262.35 360.635 1255.6 361.579 1249C365.824 1219.36 374.181 1190.6 382.975 1162C386.543 1150.4 389.672 1138.11 390.83 1126C392.196 1111.71 391.812 1097.27 393.17 1083C397.22 1040.44 403.644 996.16 418.898 956C428.828 929.856 440.725 904.6 454.031 880C462.201 864.895 474.881 846.207 472.394 828C471.302 820.003 466.333 814.773 461.075 809.001C454.342 801.61 447.227 794.415 440.745 786.83C426.059 769.643 410.006 753.604 393 738.714C384.016 730.847 375.154 722.723 365 716.322C357.024 711.293 348.605 705.59 340 701.714C330.551 697.457 320.21 694.628 311 690C325.624 684.392 339.414 673.591 353 665.745C374.608 653.267 397.485 642.221 420 631.486C448.594 617.853 478.268 606.283 508 595.436C518.825 591.487 530.431 589.554 541 585C535.919 575.047 526.747 567.821 519.089 559.961C502.766 543.204 486.79 526.748 468.17 512.491C458.377 504.994 449.564 496.061 439.576 488.799C432.148 483.399 423.799 478.983 416 474.116C405.964 467.852 396.263 460.908 386 455.039C374.38 448.395 361.274 443.156 349 437.83C341.547 434.596 334.572 430.184 327 427.212C307.088 419.398 285.585 412.697 265 406.782C254.16 403.667 243.014 402.487 232 400.536C213.623 397.282 195.597 393.94 177 392.17C170.472 391.549 163.552 391.032 157 391.001C152.089 390.977 147.625 391.701 144 388L141 388M1422 1110C1413.81 1121.9 1403.79 1132.35 1394.29 1143.17C1388.37 1149.9 1383.06 1157.41 1376.82 1163.83C1371 1169.81 1364.29 1174.8 1358 1180.21C1341.62 1194.31 1325.6 1208.11 1308 1220.71C1292.5 1231.81 1277.19 1244.36 1260 1252.82C1233.33 1265.95 1207.32 1280.4 1179 1289.83C1170.14 1292.78 1161.7 1296.71 1153 1300.07C1149.77 1301.32 1144.39 1301.31 1142.32 1304.43C1140.69 1306.87 1141.11 1310.23 1140.91 1313C1140.47 1319 1139.56 1325.02 1138.84 1331C1136.38 1351.56 1131.89 1372.33 1131 1393C1159.93 1388.1 1188.7 1378.42 1216 1368.06C1229.26 1363.03 1242.99 1358.82 1256 1353.12C1262.27 1350.38 1267.86 1346.27 1274 1343.26C1307.98 1326.58 1341.62 1305.91 1369.73 1280.53C1382.22 1269.25 1395.09 1258.33 1406.92 1246.3C1411.9 1241.23 1418.75 1236.51 1421.97 1230C1424.62 1224.65 1423 1215.85 1423 1210L1423 1165L1423 1128C1423 1122.38 1424.19 1115.22 1422 1110M1399 1388C1392.14 1392.39 1385.87 1397.64 1379 1402C1369.61 1407.96 1358.88 1412.72 1349 1417.94C1340.93 1422.2 1333.27 1427.18 1325 1431.06C1314.62 1435.92 1303.68 1439.45 1293 1443.46C1267.91 1452.89 1243.09 1461.43 1217 1467.59C1186.95 1474.69 1155.02 1481 1124 1481L1123 1515L1124 1572C1141.42 1572 1157.76 1569.35 1175 1567.29C1219 1562.02 1261.05 1549.28 1302 1532.42C1313.4 1527.73 1324.62 1522.7 1336 1517.91C1342.33 1515.25 1350.79 1512.75 1355.61 1507.67C1361.54 1501.43 1364.31 1489.96 1367.1 1482C1371.36 1469.87 1376.9 1458.17 1381.18 1446C1385.87 1432.69 1390.14 1419.4 1394.51 1406C1396.19 1400.83 1400.32 1393.36 1399 1388z"/>
<path style="fill:#4169e3; stroke:none;" d="M591 1770L591 1772C584.781 1775.23 579.606 1780.62 575.197 1786C569.507 1792.96 564.464 1800.01 562.519 1809C554.47 1846.18 595.187 1871.4 628 1867.89C637.403 1866.89 648.744 1856.16 656 1850.45C668.875 1840.3 682.416 1830.27 689.601 1815C702.427 1787.74 689.288 1755.19 659 1748L659 1746C664.925 1743.81 669.549 1739.38 673.996 1734.99C679.38 1729.66 684.476 1723.24 687.035 1716C695.944 1690.8 669.584 1671.86 648 1667.51C640.408 1665.98 631.74 1666 624 1666C620.391 1666 616.341 1665.54 613.001 1667.18C606.017 1670.6 600.303 1678.49 595.039 1684C575.619 1704.34 553.254 1738 578.289 1762.81C581.775 1766.26 586.588 1768.03 591 1770M721 1699C723.662 1704.59 729.567 1709.64 734.015 1713.98C735.908 1715.83 738.116 1718.2 741 1718.03C745.176 1717.79 749.877 1713.17 753 1710.72C760.079 1705.15 767.666 1700.11 775 1694.86C779.887 1691.36 788.465 1682.86 794.957 1686.18C805.202 1691.42 802.23 1707.06 800.399 1716C795.07 1742.02 770.605 1753.8 746 1754L746 1764C752.043 1763.88 757.917 1762.77 764 1763.04C778.724 1763.69 791.38 1769.63 800.737 1781C812.335 1795.09 814.903 1817.37 807.982 1834C805.936 1838.92 802.146 1846.83 796.989 1849.12C792.572 1851.07 782.614 1841.66 779.286 1838.87C768.882 1830.16 757.693 1822.36 747 1813.99C742.807 1810.7 737.433 1804.51 732 1803.45C728.664 1802.81 726.131 1805.93 724 1808.01C719.448 1812.45 715.202 1817.31 710 1821C712.763 1826.46 718.15 1829.5 723 1832.97C727.807 1836.42 732.193 1840.41 737 1843.88C744.487 1849.28 751.793 1855.22 759 1861C761.828 1863.27 765.154 1867.09 769 1867.31C772.852 1867.53 777.498 1865.24 781 1863.86C786.669 1861.63 792.373 1859.81 798 1857.43C813.405 1850.91 829.447 1844.26 839.516 1830C854.008 1809.48 845.5 1782.55 825.83 1768.97C818.011 1763.58 808.05 1760.57 799 1758C816.505 1747.77 832.211 1735.86 836.661 1715C837.802 1709.65 839.872 1700.48 836.012 1695.7C833.464 1692.54 827.596 1691.64 824 1690.14C814.976 1686.38 805.973 1682.36 797 1678.49C788.907 1675 778.009 1666.61 769 1666.75C763.365 1666.83 757.235 1673.02 753 1676.27C742.79 1684.11 732.144 1692.57 721 1699M937 1803C937 1817.82 940.125 1833.17 928 1844C932.352 1852.4 946.329 1857.26 954 1862.56C956.639 1864.39 960.533 1867.76 964 1866.7C966.767 1865.85 968.918 1863.03 971 1861.17C974.546 1858 978.349 1855.12 982 1852.08C985.28 1849.35 995.467 1843.32 996.079 1838.84C996.401 1836.48 994.152 1834.83 991.981 1835.33C989.377 1835.93 987.582 1838.41 985 1839.17C980.397 1840.51 971.487 1836.19 968.603 1832.61C966.491 1829.99 967.001 1826.14 967 1823L967 1803L1003 1803C1002.62 1794.09 999.686 1785.69 998 1777L967 1777L967 1698C966.995 1686.18 963.1 1672.83 951 1667.7C943.411 1664.49 940.531 1669.6 936.335 1675C931.871 1680.75 927.802 1686.85 923.151 1692.42C910.812 1707.22 900.046 1723.6 888.486 1739C880.547 1749.57 870.064 1760.24 863.982 1772C860.84 1778.08 864.825 1787.58 865.921 1794C866.349 1796.51 866.534 1800.27 868.728 1801.97C872.459 1804.88 882.464 1803 887 1803L937 1803z"/>
<path style="fill:#feffff; stroke:none;" d="M595.188 1695.03C592.332 1696.68 591.003 1700.14 589.732 1703C585.945 1711.52 585.487 1723.4 592.39 1730.67C602.314 1741.13 624.541 1741.66 638 1743.17C643.199 1743.75 648.087 1745.95 653 1743.15C665.277 1736.14 673.611 1716.29 660.906 1705.53C648.365 1694.9 626.682 1694.03 611 1694C606.443 1693.99 599.268 1692.67 595.188 1695.03M928 1696C924.077 1705.26 915.564 1714.06 909.37 1722.04C902.025 1731.5 895.232 1741.37 888.09 1750.96C881.7 1759.54 874.314 1767.67 869 1777L937 1777L937 1719C937 1709.89 937.512 1700.54 928 1696M599 1774.03C594.942 1776.04 591.76 1780.39 589.209 1784C579.368 1797.94 580.442 1812.42 594.001 1823.67C610.954 1837.74 645.172 1842.28 665 1832.29C678.403 1825.53 688.164 1806.24 675.657 1793.33C661.873 1779.1 637.163 1778.91 619 1775.92C613.414 1775 604.291 1771.4 599 1774.03z"/>
</svg>
